# xmcd
#
# Track frame offsets:
#	150
#	19077
#	34815
#	47990
#	66567
#	80557
#	91460
#	107402
#	122962
#	139537
#	160010
#	174425
#	195020
#
# Disc length: 2849 seconds
# Revision: 5
# Processed by: cddbd v1.5.2PL0 Copyright (c) Steve Scherf et al.
# Submitted via: dBpowerAMP V12.0
#
DISCID=a60b1f0d
DTITLE=Lari White - The Best of Lari White
DYEAR=1997
DGENRE=Country
TTITLE0=Amazing Grace
TTITLE1=Itty Bitty Little Single Solitary Piece O' My Heart
TTITLE2=Lay Around and Love on You
TTITLE3=Lead Me Not
TTITLE4=What a Woman Wants
TTITLE5=Wild at Heart
TTITLE6=Just Thinking
TTITLE7=That's My Baby
TTITLE8=That's How You Know (When You're in Love)
TTITLE9=Now I Know
TTITLE10=Ready, Willing, and Able
TTITLE11=I've Been Waiting for Your Love
TTITLE12=Helping me get over you (with Travis Tritt)
EXTD=
EXTT0=
EXTT1=
EXTT2=
EXTT3=
EXTT4=
EXTT5=
EXTT6=
EXTT7=
EXTT8=
EXTT9=
EXTT10=
EXTT11=
EXTT12=
PLAYORDER=
